<?xml version="1.0" encoding="utf-8"?>
<svg viewBox="325.987 201.304 413.312 101.29" xmlns="http://www.w3.org/2000/svg">
  <path class="st1 part1" d="M242,7.9h25.7v25.4h27.8v45.4c0,0.3-0.3,0.6-0.6,0.6h-25.4l-20.6,16.4l2.5-16.4H242c-0.3,0-0.6-0.3-0.6-0.6V8.5 C241.4,8.2,241.7,7.9,242,7.9z" transform="matrix(1, 0, 0, 1, 89.626419, 199.949997)" style="fill: rgb(0, 157, 220);"/>
  <g id="Layer_2" transform="matrix(1, 0, 0, 1, 89.626419, 199.949997)">
    <polyline class="st1 part1" points="269.4,8.9 294.4,31.7 269.4,31.7 &#9;" style="fill: rgb(0, 157, 220);"/>
  </g>
  <g transform="matrix(1, 0, 0, 1, 89.626419, 199.949997)">
    <path class="st1 part2" d="M430.4,46.5c-2.9-3.3-6.4-5-10.6-5c-1.7,0-3.4,0.4-4.9,1.1s-2.8,1.7-3.9,2.8c-1.1,1.2-2,2.6-2.6,4.1 c-0.6,1.6-0.9,3.2-0.9,4.9c0,1.9,0.3,3.6,0.9,5.3c0.6,1.6,1.5,3,2.6,4.1c1.1,1.2,2.5,2.1,4,2.7c1.6,0.7,3.3,1,5.2,1 c2.1,0,3.9-0.4,5.6-1.3c1.7-0.9,3.2-2.1,4.5-3.6v9.1c-1.6,0.9-3.3,1.5-4.9,1.9c-1.7,0.4-3.4,0.6-5.3,0.6c-2.7,0-5.3-0.5-7.7-1.5 c-2.4-1-4.5-2.3-6.3-4.1c-1.8-1.7-3.2-3.8-4.3-6.2c-1.1-2.4-1.6-5-1.6-7.7c0-2.8,0.5-5.5,1.5-7.9s2.4-4.6,4.3-6.3 c1.8-1.8,4-3.1,6.4-4.1c2.5-1,5.1-1.5,8-1.5c1.7,0,3.4,0.2,5.1,0.6s3.3,1,4.7,1.9v9.1H430.4z" style="fill: rgb(0, 157, 220);"/>
    <path class="st1 part2" d="M455.7,34.9c2.7,0,5.3,0.5,7.7,1.5s4.5,2.4,6.3,4.1c1.8,1.8,3.2,3.8,4.2,6.2c1,2.4,1.5,5,1.5,7.8 s-0.5,5.4-1.5,7.8c-1,2.4-2.4,4.5-4.2,6.2c-1.8,1.8-3.9,3.1-6.3,4.1s-5,1.5-7.7,1.5c-2.8,0-5.4-0.5-7.8-1.5s-4.5-2.4-6.2-4.1 c-1.8-1.8-3.2-3.8-4.2-6.2s-1.5-5-1.5-7.8s0.5-5.4,1.5-7.8s2.4-4.5,4.2-6.2c1.8-1.8,3.8-3.1,6.2-4.1S452.9,34.9,455.7,34.9z M455.7,41.7c-1.7,0-3.4,0.3-4.9,1c-1.6,0.7-2.9,1.6-4,2.8c-1.1,1.2-2,2.5-2.7,4.1s-1,3.2-1,5c0,1.7,0.3,3.4,1,4.9 c0.7,1.6,1.6,2.9,2.7,4.1c1.1,1.2,2.5,2.1,4,2.8c1.6,0.7,3.2,1,4.9,1c1.7,0,3.4-0.3,4.9-1c1.6-0.7,2.9-1.6,4-2.8s2-2.6,2.7-4.1 c0.7-1.6,1-3.2,1-4.9s-0.3-3.4-1-5s-1.6-2.9-2.7-4.1s-2.5-2.1-4-2.8C459.1,42.1,457.4,41.7,455.7,41.7z" style="fill: rgb(0, 157, 220);"/>
    <path class="st1 part2" d="M489.9,36v20.5c0,1.5,0.1,2.9,0.4,4.2s0.7,2.5,1.3,3.6c0.6,1,1.5,1.8,2.6,2.4c1.1,0.6,2.5,0.9,4.3,0.9 c1.7,0,3.2-0.3,4.3-0.9c1.1-0.6,2-1.4,2.6-2.4s1.1-2.2,1.3-3.6s0.4-2.8,0.4-4.2V36h7.1v21.3c0,2.5-0.3,4.8-0.9,6.9 c-0.6,2.1-1.5,3.9-2.8,5.4s-2.9,2.7-4.9,3.5s-4.3,1.2-7.1,1.2s-5.1-0.4-7.1-1.2s-3.6-2-4.9-3.5s-2.2-3.3-2.8-5.4 c-0.6-2.1-0.9-4.4-0.9-6.9V36H489.9z" style="fill: rgb(0, 157, 220);"/>
    <path class="st1 part2" d="M531.8,41h0.2c1.1-2,2.7-3.5,4.7-4.5s4.2-1.5,6.4-1.5c2.6,0,4.7,0.4,6.4,1.2c1.7,0.8,3.1,1.9,4,3.4 c1,1.4,1.7,3.1,2.1,5.1c0.4,1.9,0.6,4.1,0.6,6.3v22h-7.1V51.8c0-1.6-0.1-3-0.2-4.3c-0.2-1.3-0.5-2.4-1.1-3.4 c-0.6-0.9-1.4-1.7-2.5-2.2s-2.5-0.8-4.3-0.8c-2.3,0-4.1,0.5-5.3,1.4s-2.1,2.1-2.7,3.5s-0.9,3-1,4.7s-0.2,3.5-0.2,5.1v17h-7.1v-37 h7.1V41z" style="fill: rgb(0, 157, 220);"/>
    <path class="st1 part2" d="M582.1,44.5c-0.4-0.9-1.1-1.7-1.9-2.3s-1.8-0.9-2.8-0.9s-1.9,0.3-2.7,1s-1.2,1.6-1.2,2.6 c0,0.8,0.2,1.5,0.8,2.1c0.5,0.6,1.1,1.2,1.9,1.7c0.8,0.5,1.7,1,2.7,1.5c1,0.4,2.1,0.9,3.2,1.4c1.1,0.5,2.2,1,3.2,1.6 s1.9,1.3,2.7,2.2c0.8,0.9,1.4,1.8,1.9,2.9c0.5,1.1,0.7,2.4,0.7,3.8c0,1.7-0.3,3.4-1,4.9s-1.6,2.8-2.8,3.9c-1.2,1.1-2.5,2-4,2.6 s-3.2,0.9-4.9,0.9c-1.4,0-2.7-0.2-4-0.6c-1.3-0.4-2.5-0.9-3.7-1.6c-1.2-0.7-2.2-1.6-3.1-2.6s-1.6-2.2-2.1-3.5l6.1-2.8 c0.7,1.4,1.6,2.5,2.6,3.4s2.4,1.3,4.1,1.3c1.5,0,2.8-0.5,3.9-1.4c1.1-0.9,1.7-2.2,1.7-3.8c0-1-0.2-1.8-0.7-2.3 c-0.4-0.6-1.1-1.1-1.9-1.7l-7-3.7c-1.1-0.5-2-1.1-2.9-1.7c-0.9-0.6-1.6-1.2-2.3-1.9c-0.6-0.7-1.1-1.5-1.5-2.4 c-0.3-0.9-0.5-2-0.5-3.3c0-1.5,0.3-2.9,0.9-4.2c0.6-1.3,1.4-2.5,2.3-3.4c1-1,2.1-1.7,3.4-2.3c1.3-0.6,2.7-0.8,4.3-0.8 c2.3,0,4.3,0.6,6,1.7c1.7,1.2,3.1,2.7,4.1,4.7L582.1,44.5z" style="fill: rgb(0, 157, 220);"/>
    <path class="st1 part2" d="M603,55.7c0,1.6,0.3,3.1,0.8,4.6s1.3,2.8,2.3,3.9c1,1.1,2.1,2,3.5,2.7s2.9,1,4.6,1c2.7,0,4.9-0.6,6.6-1.9 c1.6-1.3,3.1-3,4.5-5.3l6,3.4c-1.7,3.2-4.1,5.7-7.1,7.5s-6.4,2.6-10,2.6c-2.8,0-5.4-0.5-7.6-1.5s-4.1-2.4-5.7-4.1s-2.8-3.8-3.6-6.2 c-0.8-2.4-1.3-4.9-1.3-7.7s0.4-5.5,1.1-7.9c0.8-2.4,1.9-4.5,3.4-6.3s3.4-3.2,5.6-4.2s4.9-1.5,7.9-1.5c2.9,0,5.5,0.5,7.7,1.5 c2.2,1,4,2.4,5.4,4.2c1.4,1.8,2.5,3.8,3.2,6.2c0.7,2.4,1.1,5,1.1,7.7v1.1H603V55.7z M624.1,50.3c-0.4-2.8-1.5-5-3.3-6.7 c-1.8-1.7-4.1-2.5-6.9-2.5s-5.1,0.9-7,2.6s-3.1,4-3.5,6.6H624.1z" style="fill: rgb(0, 157, 220);"/>
    <path class="st1 part2" d="M645.9,73h-7.1V4.4h7.1V73z" style="fill: rgb(0, 157, 220);"/>
  </g>
  <g transform="matrix(1, 0, 0, 1, 89.626419, 199.949997)">
    <path class="st1 part2" d="M325,36v20.5c0,1.5,0.1,2.9,0.4,4.2c0.2,1.3,0.7,2.5,1.3,3.6c0.6,1,1.5,1.8,2.6,2.4c1.1,0.6,2.5,0.9,4.3,0.9 c1.7,0,3.2-0.3,4.3-0.9c1.1-0.6,2-1.4,2.6-2.4c0.6-1,1.1-2.2,1.3-3.6c0.2-1.3,0.4-2.8,0.4-4.2V36h7.1v21.3c0,2.5-0.3,4.8-0.9,6.9 c-0.6,2.1-1.5,3.9-2.8,5.4c-1.3,1.5-2.9,2.7-4.9,3.5s-4.3,1.2-7.1,1.2c-2.7,0-5.1-0.4-7.1-1.2c-2-0.8-3.6-2-4.9-3.5 c-1.3-1.5-2.2-3.3-2.8-5.4c-0.6-2.1-0.9-4.4-0.9-6.9V36H325z" style="fill: rgb(0, 157, 220);"/>
    <path class="st1 part2" d="M364.1,42.2h0.2c1.5-2.2,3.3-4,5.5-5.3c2.2-1.3,4.6-2,7.4-2c2.7,0,5.1,0.5,7.2,1.6s4,2.5,5.5,4.3 s2.7,3.8,3.5,6.2c0.8,2.3,1.2,4.8,1.2,7.3c0,2.6-0.4,5.2-1.2,7.6c-0.8,2.4-1.9,4.6-3.4,6.4c-1.5,1.8-3.3,3.3-5.5,4.4 c-2.2,1.1-4.7,1.6-7.5,1.6c-2.6,0-5-0.6-7.2-1.9c-2.2-1.3-3.9-3-5.4-5.1h-0.2v26.9h-7.1V36h7.1v6.2H364.1z M375.3,67.9 c1.9,0,3.7-0.4,5.1-1.1c1.5-0.7,2.7-1.7,3.8-2.9c1-1.2,1.8-2.7,2.3-4.3s0.8-3.3,0.8-5.2c0-1.8-0.3-3.5-0.8-5.1s-1.3-3-2.3-4.2 s-2.3-2.2-3.8-2.9s-3.2-1.1-5.1-1.1c-1.8,0-3.5,0.4-4.9,1.1c-1.4,0.7-2.7,1.7-3.7,3c-1,1.2-1.8,2.6-2.3,4.2s-0.8,3.2-0.8,5 s0.3,3.4,0.8,5s1.3,3,2.3,4.3s2.2,2.3,3.6,3C371.8,67.6,373.5,67.9,375.3,67.9z" style="fill: rgb(0, 157, 220);"/>
  </g>
</svg>